<svg xmlns="http://www.w3.org/2000/svg" xmlns:xlink="http://www.w3.org/1999/xlink" fill="none" viewBox="0 0 24 26">
  <g clip-path="url(#a)">
    <path fill="#00CCA6" fill-rule="evenodd" d="M-.919 5.717A3.35 3.35 0 0 1 .223 3.853a3.2 3.2 0 0 1 2.027-.728h19.5a3.2 3.2 0 0 1 2.026.728c.576.47.979 1.128 1.143 1.864L12 13.815zM-1 7.62v11.84l9.43-5.93zm10.987 6.89L-.69 21.22c.264.57.68 1.053 1.2 1.39a3.2 3.2 0 0 0 1.74.515h19.5a3.2 3.2 0 0 0 1.738-.516c.52-.338.937-.82 1.2-1.39l-10.676-6.712L12 15.769l-2.013-1.262zm5.583-.977L25 19.46V7.62l-9.43 5.91z" clip-rule="evenodd"/>
  </g>
  <defs>
    <clipPath id="a">
      <path fill="#fff" d="M0 0h24v26H0z"/>
    </clipPath>
  </defs>
</svg>
