<svg xmlns="http://www.w3.org/2000/svg" xmlns:xlink="http://www.w3.org/1999/xlink" fill="none" viewBox="0 0 94 97">
  <path fill="#26264F" d="M7.77 90.426a.98.98 0 0 1-.058-1.96l6.854-.392 77.417-4.66a.977.977 0 0 1 1.039.919.983.983 0 0 1-.918 1.039l-84.28 5.052q-.025.002-.054.002"/>
  <path fill="#26264F" d="M7.773 90.426a.977.977 0 0 1-.964-1.146l1.558-9.095L22.111.813a.984.984 0 0 1 1.131-.8.98.98 0 0 1 .8 1.135L9.05 87.817l5.099-2.24 64.845-28.275a.98.98 0 1 1 .782 1.796L8.168 90.343a1 1 0 0 1-.395.083"/>
  <path fill="url(#a)" d="M8.067 96.696a8.066 8.066 0 1 0 0-16.13 8.066 8.066 0 1 0 0 16.13"/>
  <defs>
    <linearGradient id="a" x1="-.002" x2="16.134" y1="88.632" y2="88.632" gradientUnits="userSpaceOnUse">
      <stop stop-color="#00CCA6"/>
      <stop offset=".988" stop-color="#fff"/>
    </linearGradient>
  </defs>
</svg>
