<svg xmlns="http://www.w3.org/2000/svg" xmlns:xlink="http://www.w3.org/1999/xlink" fill="none" viewBox="0 0 99 124">
  <path fill="url(#a)" d="M94.215 123.809a40 40 0 0 1-2.66-1.135c-1.374-8.342-3.935-19.213-6.415-26.017-3.092-8.498-7.317-17.343-12.672-26.19a181 181 0 0 0-11.95-17.413c-13.666-17.608-29.37-31.32-44.35-39.813-3.623-2.055-9.98-4.575-15.172-6.474C.964 6.61.933 6.475.91 6.33.497 4.154.185 2.064 0 .07c27.929-1.158 57.41 12.138 77.33 37.806 20.346 26.217 25.699 58.804 16.885 85.933"/>
  <defs>
    <linearGradient id="a" x1="80.482" x2="55.074" y1="36.05" y2="55.767" gradientUnits="userSpaceOnUse">
      <stop stop-color="#00CCA6"/>
      <stop offset=".988" stop-color="#fff"/>
    </linearGradient>
  </defs>
</svg>
