<svg xmlns="http://www.w3.org/2000/svg" xmlns:xlink="http://www.w3.org/1999/xlink" fill="none" viewBox="0 0 92 117">
  <path fill="url(#a)" d="M90.556 116.23c-.19-.084-.375-.159-.554-.251-10.105-4.783-21.56-13.085-33.082-24.115a208 208 0 0 1-14.454-15.201c-2.87-3.233-5.688-6.703-8.454-10.268-9.404-12.118-17.147-24.39-22.94-35.95C5.556 19.516 1.75 9.196 0 .32 1.037.698 2.887-.315 3.984.103 6.141.93 42.48 17.016 63.61 44.055 82.1 67.717 88.007 99.99 91.094 111.874c.543 2.102-.65 3.675-.537 4.356z"/>
  <defs>
    <linearGradient id="a" x1="29.382" x2="63.768" y1="70.793" y2="43.702" gradientUnits="userSpaceOnUse">
      <stop stop-color="#00876D"/>
      <stop offset="1" stop-color="#1BD1B0"/>
    </linearGradient>
  </defs>
</svg>
